# xmcd
#
# Track frame offsets:
#	150
#	16691
#	34949
#	54645
#	67911
#	85667
#	103724
#	121287
#	138790
#	155753
#	173559
#	188864
#	204707
#
# Disc length: 2981 seconds
#
# Revision: 1
# Processed by: cddbd v1.4PL0 Copyright (c) Steve Scherf et al.
# Submitted via: EasyCDDAExtractor 6.0.0.1
#
DISCID=a60ba30d
DTITLE=Archie Edwards - The Toronto Sessions
DYEAR=2002
DGENRE=Blues
TTITLE0=I Had A Little Girl
TTITLE1=One Thin Dime Blues
TTITLE2=I'm Down Today
TTITLE3=Sitting On Top Of The World
TTITLE4=That Won't Do
TTITLE5=Greyhound Bus Blues
TTITLE6=I Called My Bay Long Distance
TTITLE7=Take Me Back Baby
TTITLE8=Easy Rider
TTITLE9=How Long Blues
TTITLE10=Pittsburgh Blues
TTITLE11=Poor Me
TTITLE12=Meet Me In The Bottom
EXTD=
EXTT0=
EXTT1=
EXTT2=
EXTT3=
EXTT4=
EXTT5=
EXTT6=
EXTT7=
EXTT8=
EXTT9=
EXTT10=
EXTT11=
EXTT12=
PLAYORDER=
